<svg xmlns="http://www.w3.org/2000/svg" viewBox="0 0 81 81"><defs><style>.cls-1{fill:none;stroke:#000;stroke-miterlimit:10;}</style></defs><g id="Layer_2" data-name="Layer 2"><g id="Layer_1-2" data-name="Layer 1"><circle class="cls-1" cx="40.5" cy="40.5" r="40"/><path d="M60.06,30.08c0,.44,0,.88,0,1.31,0,13.35-10.15,28.72-28.71,28.72a28.45,28.45,0,0,1-15.5-4.53,19.47,19.47,0,0,0,2.43.13,20.19,20.19,0,0,0,12.53-4.32,10.1,10.1,0,0,1-9.43-7,11.88,11.88,0,0,0,1.9.16A10.6,10.6,0,0,0,26,44.21a10.1,10.1,0,0,1-8.1-9.91v-.12a10.3,10.3,0,0,0,4.57,1.28A10.12,10.12,0,0,1,19.31,22,28.72,28.72,0,0,0,40.12,32.52a11.84,11.84,0,0,1-.25-2.31A10.1,10.1,0,0,1,57.34,23.3a19.9,19.9,0,0,0,6.41-2.44,10,10,0,0,1-4.44,5.57,20.3,20.3,0,0,0,5.81-1.57,21.62,21.62,0,0,1-5.06,5.22Z"/></g></g></svg>